<svg width="228" height="239" xmlns="http://www.w3.org/2000/svg" xmlns:xlink="http://www.w3.org/1999/xlink" xml:space="preserve" overflow="hidden"><g transform="translate(-359 -192)"><path d="M38.9017-2411.97C66.8841-2411.64 83.7315-2432.92 83.7315-2454.36 83.7315-2475.81 63.8523-2490.88 39.3639-2491.75 4.44292-2492.98-8.1587-2475.31-9.93341-2451.08-10.5989-2442.01-9.52054-2426.43 1.03524-2419.89 13.4828-2412.46 24.7965-2412.14 38.9017-2411.97Z" fill="#FFFFFF" transform="matrix(1 0 0 1.10815 389.811 3012.2)"/><path d="M143.708-2421.5C162.465-2421.5 174.519-2433.73 174.519-2453.13 174.519-2472.52 159.588-2488.87 140.83-2488.87 122.072-2488.87 105.447-2474.53 105.447-2455.13 105.447-2446.91 108.306-2436.51 112.891-2430.53 119.115-2422.42 132.912-2421.5 143.708-2421.5Z" fill="#FFFFFF" transform="matrix(1 0 0 1.10815 389.811 3012.2)"/><path d="M30.5643-2342.69C29.4859-2342.7 28.4261-2342.92 27.4339-2343.34 25.2525-2344.17 23.5949-2345.98 22.9602-2348.22 22.2947-2351.06 23.0157-2354.04 24.8582-2356.3 28.6972-2361.24 31.1004-2367.47 33.0538-2372.93 35.8823-2379.03 37.5707-2398.22 42.7592-2380.86 43.2954-2377.94 43.5542-2374.97 43.5357-2371.99 44.0964-2371.85 44.6695-2371.69 45.2179-2371.55L45.2303-2371.55C48.6626-2370.57 52.1072-2369.96 55.5457-2369.25L55.5519-2369.25C76.873-2364.92 99.6298-2361.04 120.815-2366.94 123.459-2367.8 126.016-2368.9 128.45-2370.23 132.08-2372.42 136.973-2374.08 140.59-2370.9 144.879-2367.54 144.953-2360.82 139.832-2357.91 109.693-2343.2 71.9494-2351.65 43.283-2366.25 42.6853-2360.95 41.0831-2355.31 38.2239-2348.52L38.1684-2348.62C37.2503-2345.28 34.0768-2342.65 30.5643-2342.69Z" transform="matrix(1 0 0 1.10815 389.811 3012.2)"/><path d="M28.9437-2496.14C-11.591-2498.81-35.1243-2428.44 4.44908-2411.31 9.31719-2409.71 14.3455-2408.65 19.4478-2408.14 27.2059-2407.09 35.075-2406.32 42.901-2406.29 68.9731-2404.97 88.1559-2431.56 89.5424-2455.6 88.4702-2484.42 54.6461-2500.07 28.9437-2496.14ZM51.2261-2417.67C40.2697-2415.66 29.0423-2417.48 18.1599-2419.18-14.1545-2420.84-9.69308-2462.68 7.72119-2480.04 16.7241-2484.52 26.6329-2486.88 36.6895-2486.94 66.3357-2486.89 91.5081-2463.43 72.3623-2435.98 67.6236-2428.06 61.4676-2419.67 51.2261-2417.67Z" transform="matrix(1 0 0 1.10815 389.811 3012.2)"/><path d="M36.3506-2428.39C31.7844-2428.38 27.3045-2429.66 23.4285-2432.08 23.4285-2432.08 23.5271-2432.2 23.5518-2432.24 23.8106-2432.19 24.0756-2432.17 24.3344-2432.17 29.6708-2432.3 29.412-2439.77 27.6311-2443.3 24.8705-2448.86 16.7981-2449.16 12.731-2444.91 7.54865-2456.52 12.1148-2472.88 23.9338-2477.78 25.9304-2478.73 28.1118-2479.24 30.324-2479.29 31.2853-2479.29 32.2404-2479.17 33.1771-2478.95 41.687-2483.27 51.9101-2482.4 59.5819-2476.71 58.9103-2476.6 58.2632-2476.39 57.647-2476.1 56.0264-2475.21 54.8864-2473.64 54.5536-2471.82 54.0545-2469.86 55.1945-2467.85 57.1356-2467.27 59.773-2466.25 63.2299-2466.82 64.3268-2469.69 64.3453-2469.74 64.6719-2470.52 64.7273-2470.66 64.8198-2470.74 64.9061-2470.83 64.9923-2470.92 74.0199-2457.76 64.9862-2440.91 52.6803-2433.55 48.6195-2430.89 44.004-2429.17 39.1852-2428.55 38.2424-2428.44 37.2934-2428.39 36.3506-2428.39Z" transform="matrix(1 0 0 1.10815 389.811 3012.2)"/><path d="M161.369-2489.51C148.077-2498.86 129.781-2499.15 117.303-2487.35 116.305-2486.22 115.43-2484.99 114.696-2483.68 100.474-2471.67 96.3084-2449.4 102.988-2432.39 104.547-2428.93 106.877-2425.88 109.797-2423.46L109.958-2423.02 109.964-2423.01C112.33-2416.5 115.578-2410.64 119.743-2405.13 112.595-2403.95 105.133-2404.51 98.2865-2406.96 96.5364-2407.56 94.5214-2407.53 92.9193-2406.55 89.3205-2404.08 88.0203-2399.38 89.8505-2395.42 90.781-2393.78 92.3955-2392.64 94.2503-2392.3 98.724-2391.28 103.296-2390.76 107.881-2390.75L107.881-2390.75C115.004-2390.72 125.838-2392.35 130.398-2396.98 132.351-2398.83 133.17-2401.58 132.542-2404.19 131.907-2407.33 129.775-2410 127.569-2412.41 126.115-2414.09 124.439-2415.57 122.596-2416.81 139.062-2413.18 159.908-2410.14 172.793-2423.76 190.885-2442.96 181.599-2475.56 161.369-2489.51ZM160.185-2431.68C154.418-2427.09 143.233-2427.77 135.315-2428.64 129.251-2429.17 122.399-2430.07 117.833-2433.96 110.062-2440.2 110.444-2459.18 114.234-2469.36 114.234-2469.36 114.684-2469.32 114.912-2469.32 116.471-2469.34 117.931-2470.21 118.739-2471.58 120.014-2473.21 121.592-2474.59 123.379-2475.64 124.371-2476.28 125.517-2477.11 126.509-2477.88 128.555-2479.5 130.841-2480.79 133.288-2481.7 158.965-2490.63 179.929-2448.25 160.185-2431.68Z" transform="matrix(1 0 0 1.10815 389.811 3012.2)"/><path d="M140.485-2433.11C136.159-2433.1 131.963-2434.55 128.561-2437.22 128.882-2437.38 129.171-2437.61 129.412-2437.87 130.33-2438.84 130.995-2440.06 131.433-2441.3 131.501-2441.5 131.667-2442 131.667-2442 132.493-2443.67 131.969-2445.69 130.441-2446.76L130.256-2446.87C129.683-2447.19 129.042-2447.35 128.389-2447.33 127.267-2448.73 125.554-2449.53 123.761-2449.49 123.132-2449.49 122.51-2449.4 121.906-2449.25 121.881-2449.47 121.801-2450.03 121.795-2450.24 119.139-2458.92 122.43-2468.85 129.442-2474.53 131.236-2476.12 133.528-2477.05 135.925-2477.17 137.318-2477.18 138.698-2476.75 139.881-2476.02 142.808-2476.41 145.828-2475.75 148.348-2474.21 147.972-2473.2 148.126-2472.04 148.619-2471.1 149.1-2470.07 149.87-2469.2 150.831-2468.59 151.509-2468.19 152.286-2468 153.068-2468 154.794-2468.06 156.537-2469.2 156.956-2470.93 164.671-2462.76 163.79-2448.09 155.459-2440.65L155.447-2440.65 155.305-2440.52C151.91-2435.79 146.296-2433.04 140.485-2433.11L140.485-2433.11Z" transform="matrix(1 0 0 1.10815 389.811 3012.2)"/><path d="M-8.22032-2489.98C-8.33124-2489.98-8.436-2490.03-8.51611-2490.11-8.58389-2490.18-8.62087-2490.27-8.6147-2490.37-8.30043-2493.37-7.18508-2496.23-5.39805-2498.66-3.648-2501.14-1.71924-2503.49 0.375892-2505.7L0.394378-2505.72C12.5646-2518.68 29.6523-2527.55 47.387-2529.36 52.6064-2529.73 58.5344-2524 55.3239-2518.64 52.9576-2514.04 47.2391-2513.58 42.636-2513.21 29.2826-2512 16.7179-2506.24 5.57676-2499.01 1.02292-2496.06-3.00097-2491.63-8.22032-2489.98Z" transform="matrix(1 0 0 1.10815 389.811 3012.2)"/><path d="M165.306-2496.32C163.402-2496.35 161.566-2497.06 160.13-2498.31 147.078-2510.46 131.87-2516.99 114.739-2520.05L114.727-2520.05 113.612-2520.3C113.439-2520.35 113.298-2520.47 113.236-2520.64 113.168-2520.8 113.18-2520.98 113.273-2521.13 126.959-2536.35 159.286-2521.6 170.821-2509 172.947-2506.89 173.563-2503.69 172.38-2500.94 171.117-2498.17 168.363-2496.36 165.306-2496.32L165.306-2496.32Z" transform="matrix(1 0 0 1.10815 389.811 3012.2)"/></g></svg>